<svg width="10" height="17" viewBox="0 0 10 17" fill="none" xmlns="http://www.w3.org/2000/svg">
    <path d="M0.299988 14.4325L0.508321 16.375L1.85832 15.0275L4.16665 8.3775C3.59999 8.22875 3.09999 7.93125 2.69165 7.52L0.299988 14.4325ZM7.30832 7.52C6.89999 7.93125 6.39165 8.22875 5.83332 8.3775L8.14165 15.0275L9.49165 16.375L9.70832 14.4325L7.30832 7.52ZM7.49999 5C7.49999 3.8625 6.79999 2.9 5.83332 2.5325V0.625H4.16665V2.5325C3.19999 2.9 2.49999 3.8625 2.49999 5C2.49999 6.4525 3.61665 7.625 4.99999 7.625C6.38332 7.625 7.49999 6.4525 7.49999 5ZM4.99999 5.875C4.54165 5.875 4.16665 5.48125 4.16665 5C4.16665 4.51875 4.54165 4.125 4.99999 4.125C5.45832 4.125 5.83332 4.51875 5.83332 5C5.83332 5.48125 5.45832 5.875 4.99999 5.875Z" fill="#253B59"/>
</svg>