<svg width="40" height="42" viewBox="0 0 40 42" fill="none" xmlns="http://www.w3.org/2000/svg">
    <path d="M35.28 21.7002C33.47 26.8902 28.39 32.6302 24.28 36.7002C25.6108 38.2259 27.0405 39.6623 28.56 41.0002C28.8735 41.2806 29.2794 41.4356 29.7 41.4356C30.1206 41.4356 30.5265 41.2806 30.84 41.0002C33.33 38.7902 39.06 33.2802 39.06 29.2302C39.0632 27.7668 38.7228 26.3231 38.0662 25.0153C37.4097 23.7074 36.4554 22.572 35.28 21.7002Z" fill="#40C85F"/>
    <path d="M35.28 21.6998C33.8895 20.6627 32.2378 20.0328 30.5098 19.8807C28.7817 19.7286 27.0455 20.0603 25.4951 20.8386C23.9448 21.6168 22.6416 22.8111 21.7311 24.2877C20.8207 25.7643 20.3391 27.4651 20.34 29.1998C20.34 31.5098 22.21 34.2998 24.28 36.6798C28.39 32.6298 33.47 26.8898 35.28 21.6998Z" fill="#85E84A"/>
    <path d="M18.46 0.580104C16.1589 0.578789 13.8801 1.03106 11.7538 1.91106C9.62762 2.79105 7.69571 4.08152 6.06856 5.70866C4.44142 7.3358 3.15096 9.26772 2.27096 11.3939C1.39096 13.5202 0.938691 15.799 0.940005 18.1001C0.940005 26.2801 13.47 37.6801 17.33 41.0001C17.6425 41.2703 18.0419 41.419 18.455 41.419C18.8681 41.419 19.2675 41.2703 19.58 41.0001C20.64 40.0901 22.35 38.5701 24.28 36.6801C22.21 34.3001 20.34 31.5101 20.34 29.2001C20.3534 26.9092 21.2075 24.703 22.74 23.0001C21.5871 24.1017 20.0546 24.7175 18.46 24.7201C17.0019 24.7402 15.5812 24.2586 14.4359 23.3561C13.2905 22.4535 12.4901 21.1848 12.1687 19.7624C11.8473 18.34 12.0245 16.8504 12.6705 15.5431C13.3166 14.2358 14.3922 13.1901 15.7173 12.5814C17.0424 11.9726 18.5364 11.8377 19.9492 12.1993C21.3619 12.5608 22.6074 13.3968 23.4772 14.5673C24.347 15.7377 24.7881 17.1715 24.7267 18.6284C24.6653 20.0854 24.1051 21.477 23.14 22.5701C24.7284 21.0002 26.8277 20.0528 29.0559 19.9005C31.284 19.7481 33.4927 20.401 35.28 21.7401C35.7263 20.5768 35.9698 19.3457 36 18.1001C36.0013 15.7973 35.5484 13.5168 34.6671 11.3893C33.7859 9.26179 32.4936 7.32898 30.8644 5.70158C29.2351 4.07417 27.3008 2.78413 25.1723 1.90531C23.0438 1.02649 20.7628 0.576158 18.46 0.580104Z" fill="#4BC714"/>
</svg>
