<svg width="42" height="42" viewBox="0 0 42 42" fill="none" xmlns="http://www.w3.org/2000/svg">
    <g clip-path="url(#clip0)">
        <rect x="41.4899" y="0.489929" width="41" height="41" rx="20.5" transform="rotate(90 41.4899 0.489929)" fill="white"/>
        <path fill-rule="evenodd" clip-rule="evenodd" d="M20.9899 3.05243C16.2325 3.05243 11.6701 4.94227 8.30614 8.3062C4.94221 11.6701 3.05237 16.2326 3.05237 20.9899C3.05237 25.7472 4.94221 30.3097 8.30614 33.6737C11.6701 37.0376 16.2325 38.9274 20.9899 38.9274C25.7472 38.9274 30.3097 37.0376 33.6736 33.6737C37.0375 30.3097 38.9274 25.7472 38.9274 20.9899C38.9274 16.2326 37.0375 11.6701 33.6736 8.3062C30.3097 4.94227 25.7472 3.05243 20.9899 3.05243ZM20.9899 41.4899C15.5529 41.4899 10.3387 39.3301 6.49418 35.4856C2.64968 31.6411 0.489868 26.4269 0.489868 20.9899C0.489868 15.553 2.64968 10.3387 6.49418 6.49424C10.3387 2.64974 15.5529 0.489929 20.9899 0.489929C26.4268 0.489929 31.6411 2.64974 35.4856 6.49424C39.3301 10.3387 41.4899 15.553 41.4899 20.9899C41.4899 26.4269 39.3301 31.6411 35.4856 35.4856C31.6411 39.3301 26.4268 41.4899 20.9899 41.4899ZM12.0211 22.2712C11.6813 22.2712 11.3554 22.1362 11.1151 21.8959C10.8749 21.6556 10.7399 21.3297 10.7399 20.9899C10.7399 20.6501 10.8749 20.3242 11.1151 20.0839C11.3554 19.8437 11.6813 19.7087 12.0211 19.7087L26.8657 19.7087L21.364 14.2096C21.1234 13.969 20.9883 13.6427 20.9883 13.3024C20.9883 12.9622 21.1234 12.6359 21.364 12.3953C21.6046 12.1547 21.9309 12.0196 22.2711 12.0196C22.6114 12.0196 22.9377 12.1547 23.1782 12.3953L30.8657 20.0828C30.9851 20.2018 31.0797 20.3432 31.1443 20.4989C31.2089 20.6545 31.2422 20.8214 31.2422 20.9899C31.2422 21.1585 31.2089 21.3253 31.1443 21.481C31.0797 21.6366 30.9851 21.778 30.8657 21.8971L23.1782 29.5846C22.9377 29.8251 22.6114 29.9603 22.2711 29.9603C21.9309 29.9603 21.6046 29.8251 21.364 29.5846C21.1234 29.344 20.9883 29.0177 20.9883 28.6774C20.9883 28.3372 21.1234 28.0109 21.364 27.7703L26.8657 22.2712L12.0211 22.2712Z" fill="#033F7F"/>
    </g>
    <defs>
        <clipPath id="clip0">
            <rect x="41.4899" y="0.489929" width="41" height="41" rx="20.5" transform="rotate(90 41.4899 0.489929)" fill="white"/>
        </clipPath>
    </defs>
</svg>