<svg width="18" height="18" viewBox="0 0 18 18" fill="none" xmlns="http://www.w3.org/2000/svg">
    <path d="M15.875 12.8388V5.1613C16.3015 5.052 16.6915 4.8318 17.0053 4.52304C17.3192 4.21428 17.5458 3.82797 17.6621 3.40332C17.7783 2.97867 17.7802 2.53082 17.6674 2.10523C17.5546 1.67964 17.3312 1.29148 17.0199 0.980158C16.7085 0.668834 16.3204 0.445436 15.8948 0.332647C15.4692 0.219858 15.0214 0.221696 14.5967 0.337974C14.1721 0.454252 13.7858 0.680828 13.477 0.994697C13.1682 1.30857 12.948 1.69855 12.8387 2.12505H5.16124C5.05194 1.69855 4.83174 1.30857 4.52298 0.994697C4.21422 0.680828 3.82791 0.454252 3.40326 0.337974C2.97861 0.221696 2.53076 0.219858 2.10517 0.332647C1.67958 0.445436 1.29142 0.668834 0.980097 0.980158C0.668773 1.29148 0.445375 1.67964 0.332586 2.10523C0.219797 2.53082 0.221635 2.97867 0.337913 3.40332C0.454191 3.82797 0.680767 4.21428 0.994636 4.52304C1.3085 4.8318 1.69849 5.052 2.12499 5.1613V12.8388C1.69849 12.9481 1.3085 13.1683 0.994636 13.4771C0.680767 13.7858 0.454191 14.1721 0.337913 14.5968C0.221635 15.0214 0.219797 15.4693 0.332586 15.8949C0.445375 16.3204 0.668773 16.7086 0.980097 17.0199C1.29142 17.3313 1.67958 17.5547 2.10517 17.6674C2.53076 17.7802 2.97861 17.7784 3.40326 17.6621C3.82791 17.5458 4.21422 17.3193 4.52298 17.0054C4.83174 16.6915 5.05194 16.3015 5.16124 15.875H12.8387C12.948 16.3015 13.1682 16.6915 13.477 17.0054C13.7858 17.3193 14.1721 17.5458 14.5967 17.6621C15.0214 17.7784 15.4692 17.7802 15.8948 17.6674C16.3204 17.5547 16.7085 17.3313 17.0199 17.0199C17.3312 16.7086 17.5546 16.3204 17.6674 15.8949C17.7802 15.4693 17.7783 15.0214 17.6621 14.5968C17.5458 14.1721 17.3192 13.7858 17.0053 13.4771C16.6915 13.1683 16.3015 12.9481 15.875 12.8388ZM15.25 1.50005C15.4972 1.50005 15.7389 1.57336 15.9444 1.71071C16.15 1.84806 16.3102 2.04328 16.4048 2.27169C16.4994 2.5001 16.5242 2.75143 16.476 2.99391C16.4277 3.23639 16.3087 3.45911 16.1339 3.63393C15.9591 3.80875 15.7363 3.9278 15.4938 3.97603C15.2514 4.02426 15 3.99951 14.7716 3.9049C14.5432 3.81029 14.348 3.65007 14.2106 3.44451C14.0733 3.23895 14 2.99727 14 2.75005C14.0003 2.41863 14.1321 2.10088 14.3665 1.86653C14.6008 1.63218 14.9186 1.50038 15.25 1.50005ZM1.49999 2.75005C1.49999 2.50282 1.5733 2.26115 1.71065 2.05558C1.848 1.85002 2.04322 1.68981 2.27163 1.5952C2.50004 1.50059 2.75137 1.47583 2.99385 1.52406C3.23632 1.5723 3.45905 1.69135 3.63387 1.86616C3.80868 2.04098 3.92774 2.26371 3.97597 2.50618C4.0242 2.74866 3.99944 2.99999 3.90483 3.2284C3.81023 3.45681 3.65001 3.65203 3.44445 3.78938C3.23889 3.92674 2.99721 4.00005 2.74999 4.00005C2.41857 3.99972 2.10082 3.86791 1.86647 3.63356C1.63212 3.39922 1.50032 3.08147 1.49999 2.75005ZM2.74999 16.5C2.50276 16.5 2.26108 16.4267 2.05552 16.2894C1.84996 16.152 1.68975 15.9568 1.59514 15.7284C1.50053 15.5 1.47577 15.2487 1.524 15.0062C1.57224 14.7637 1.69129 14.541 1.8661 14.3662C2.04092 14.1913 2.26365 14.0723 2.50612 14.0241C2.7486 13.9758 2.99993 14.0006 3.22834 14.0952C3.45675 14.1898 3.65197 14.35 3.78932 14.5556C3.92667 14.7611 3.99999 15.0028 3.99999 15.25C3.99965 15.5815 3.86785 15.8992 3.6335 16.1336C3.39915 16.3679 3.0814 16.4997 2.74999 16.5ZM12.8387 14.625H5.16124C5.04928 14.1953 4.82473 13.8033 4.51074 13.4893C4.19675 13.1753 3.80469 12.9508 3.37499 12.8388V5.1613C3.80466 5.04928 4.19669 4.82471 4.51067 4.51073C4.82465 4.19675 5.04922 3.80472 5.16124 3.37505H12.8387C12.9507 3.80475 13.1752 4.19681 13.4892 4.5108C13.8032 4.82479 14.1953 5.04934 14.625 5.1613V12.8388C14.1953 12.9507 13.8032 13.1752 13.4892 13.4892C13.1752 13.8032 12.9506 14.1953 12.8387 14.625ZM15.25 16.5C15.0028 16.5 14.7611 16.4267 14.5555 16.2894C14.35 16.152 14.1897 15.9568 14.0951 15.7284C14.0005 15.5 13.9758 15.2487 14.024 15.0062C14.0722 14.7637 14.1913 14.541 14.3661 14.3662C14.5409 14.1913 14.7636 14.0723 15.0061 14.0241C15.2486 13.9758 15.4999 14.0006 15.7283 14.0952C15.9567 14.1898 16.152 14.35 16.2893 14.5556C16.4267 14.7611 16.5 15.0028 16.5 15.25C16.4995 15.5814 16.3676 15.8991 16.1333 16.1334C15.899 16.3677 15.5814 16.4995 15.25 16.5Z" fill="#253B59"/>
</svg>