<svg width="20" height="20" viewBox="0 0 20 20" fill="none" xmlns="http://www.w3.org/2000/svg">
    <path d="M5.83325 9.16669H7.49992V10.8334H5.83325V9.16669ZM5.83325 12.5H7.49992V14.1667H5.83325V12.5ZM9.16659 9.16669H10.8333V10.8334H9.16659V9.16669ZM9.16659 12.5H10.8333V14.1667H9.16659V12.5ZM12.4999 9.16669H14.1666V10.8334H12.4999V9.16669ZM12.4999 12.5H14.1666V14.1667H12.4999V12.5Z" fill="#253B59"/>
    <path d="M4.16667 18.3333H15.8333C16.7525 18.3333 17.5 17.5858 17.5 16.6667V4.99999C17.5 4.08082 16.7525 3.33332 15.8333 3.33332H14.1667V1.66666H12.5V3.33332H7.5V1.66666H5.83333V3.33332H4.16667C3.2475 3.33332 2.5 4.08082 2.5 4.99999V16.6667C2.5 17.5858 3.2475 18.3333 4.16667 18.3333ZM15.8333 6.66666L15.8342 16.6667H4.16667V6.66666H15.8333Z" fill="#253B59"/>
</svg>